<svg xmlns="http://www.w3.org/2000/svg" xmlns:xlink="http://www.w3.org/1999/xlink" width="40" height="40" viewBox="0 0 40 40" id="stocks"><defs><circle id="a" cx="20" cy="20" r="20"></circle></defs><g fill="none" fill-rule="evenodd"><mask id="b" fill="#fff"><use xlink:href="#a"></use></mask><use fill="#3D3D3D" xlink:href="#a"></use><path stroke="#FFF" stroke-linecap="round" stroke-linejoin="round" d="M37.3155467,15.9829917 C35.7771623,14.8885223 34.9586639,14.3712862 34.8600515,14.4312834 C34.712133,14.5212791 31.5562264,17.5360164 31.1771038,18.0586639 C30.9243554,18.4070957 30.1342014,20.0852521 28.8066418,23.0931332 L26.1103602,17.9999971 L23.3094824,19.4487848 L19.7189878,11.9834474 L19.6878723,12.3288299 L16.7510435,21.1680383 L14.5961723,21.7352986 L11.3412469,26.3114379 L8.5592778,24.820764 L5.44676587,18.143368 L2.50993709,23.9009406 L-0.860115819,21.4559768 C-1.40652668,23.1748424 -2.08443042,24.2887287 -2.89382706,24.7976356 C-4.10792202,25.5609959 -4.99613775,26.2040977 -5.69819016,26.3510523 C-6.40024257,26.4980069 -7.44294014,25.9153767 -8.71356585,25.1957971 C-9.98419157,24.4762176 -10.5336024,23.6025796 -11.4895329,23.447019 C-12.1268199,23.3433119 -13.9211329,23.1377031 -16.8724719,22.8301925 L-16.5513709,47.207775 L38.6669315,46.8484941 L41.2559715,13.9812908 L37.3155467,15.9829917 Z" mask="url(#b)"></path><polygon fill="#00A4F9" points="19.5 -5.5 20.5 -5.5 20.5 46.5 19.5 46.5" mask="url(#b)"></polygon><circle cx="20" cy="11.5" r="2.5" fill="#00AEFF" stroke="#3D3D3D" stroke-linecap="square" mask="url(#b)"></circle></g></svg>