<svg xmlns="http://www.w3.org/2000/svg" width="24" height="24" id="history"><path fill="none" d="M0 0h24v24H0Z"></path><path fill="#525863" d="M21.599 12a9.611 9.611 0 0 0-9.6-9.6 9.619 9.619 0 0 0-7.771 3.969V3.314a.914.914 0 0 0-.914-.914.914.914 0 0 0-.914.914v4.9a1.5 1.5 0 0 0 1.5 1.5h4.9a.914.914 0 0 0 .914-.914.914.914 0 0 0-.914-.914H5.408A7.79 7.79 0 0 1 12 4.229a7.78 7.78 0 0 1 7.771 7.772A7.78 7.78 0 0 1 12 19.772a7.778 7.778 0 0 1-7.344-5.222.913.913 0 0 0-1.163-.564.914.914 0 0 0-.564 1.163 9.608 9.608 0 0 0 9.07 6.451 9.611 9.611 0 0 0 9.6-9.6Zm-11.085 3.057 2.121-2.121a.9.9 0 0 0 .168-.233.9.9 0 0 0 .092-.4V6.9a.9.9 0 0 0-.9-.9.9.9 0 0 0-.9.9v5.027l-1.858 1.857a.9.9 0 0 0 0 1.273.9.9 0 0 0 .636.264.9.9 0 0 0 .641-.263Z"></path></svg>