<svg xmlns="http://www.w3.org/2000/svg" fill-rule="evenodd" stroke-linejoin="round" stroke-miterlimit="2" clip-rule="evenodd" viewBox="0 0 64 64" id="history"><g transform="translate(-2348 -248)"><path d="M2363.21,255.143L2363.64,252.411C2363.81,251.321 2363.07,250.296 2361.98,250.123C2360.89,249.95 2359.86,250.695 2359.69,251.786L2358.44,259.687C2358.26,260.778 2359.01,261.803 2360.1,261.975L2368,263.227C2369.09,263.4 2370.12,262.655 2370.29,261.564C2370.46,260.474 2369.72,259.449 2368.63,259.276L2365.08,258.714C2369.3,255.744 2374.45,254 2380,254C2394.35,254 2406,265.65 2406,280C2406,294.35 2394.35,306 2380,306C2365.65,306 2354,294.35 2354,280C2354,278.896 2353.1,278 2352,278C2350.9,278 2350,278.896 2350,280C2350,296.557 2363.44,310 2380,310C2396.56,310 2410,296.557 2410,280C2410,263.443 2396.56,250 2380,250C2373.78,250 2368,251.897 2363.21,255.143ZM2378,260L2378,280C2378,280.53 2378.21,281.039 2378.59,281.414L2388.59,291.414C2389.37,292.195 2390.63,292.195 2391.41,291.414C2392.2,290.634 2392.2,289.366 2391.41,288.586L2382,279.172C2382,279.172 2382,260 2382,260C2382,258.896 2381.1,258 2380,258C2378.9,258 2378,258.896 2378,260Z"></path></g></svg>